<svg xmlns="http://www.w3.org/2000/svg" width="850" height="520" viewBox="0 0 850 520">
<rect width="100%" height="100%" fill="#ffffff"/>
<text x="425.0" y="32.0" text-anchor="middle" font-family="Arial, sans-serif" font-size="22" font-weight="700" fill="#111827">Public Corpus Maximum Positive Size Delta</text>
<text x="425.0" y="58.0" text-anchor="middle" font-family="Arial, sans-serif" font-size="13" fill="#6b7280">Maximum Go-larger compressed-size delta by dataset</text>
<line x1="90" y1="425.0" x2="815" y2="425.0" stroke="#e5e7eb"/>
<text x="80.0" y="429.0" text-anchor="end" font-family="Arial, sans-serif" font-size="12" fill="#6b7280">0.0</text>
<line x1="90" y1="351.2" x2="815" y2="351.2" stroke="#e5e7eb"/>
<text x="80.0" y="355.2" text-anchor="end" font-family="Arial, sans-serif" font-size="12" fill="#6b7280">0.5</text>
<line x1="90" y1="277.4" x2="815" y2="277.4" stroke="#e5e7eb"/>
<text x="80.0" y="281.4" text-anchor="end" font-family="Arial, sans-serif" font-size="12" fill="#6b7280">1.0</text>
<line x1="90" y1="203.6" x2="815" y2="203.6" stroke="#e5e7eb"/>
<text x="80.0" y="207.6" text-anchor="end" font-family="Arial, sans-serif" font-size="12" fill="#6b7280">1.5</text>
<line x1="90" y1="129.7" x2="815" y2="129.7" stroke="#e5e7eb"/>
<text x="80.0" y="133.7" text-anchor="end" font-family="Arial, sans-serif" font-size="12" fill="#6b7280">2.0</text>
<line x1="90" y1="55.9" x2="815" y2="55.9" stroke="#e5e7eb"/>
<text x="80.0" y="59.9" text-anchor="end" font-family="Arial, sans-serif" font-size="12" fill="#6b7280">2.5</text>
<rect x="160.8" y="161.9" width="100.0" height="263.1" fill="#2563eb"/>
<text x="210.8" y="154.9" text-anchor="middle" font-family="Arial, sans-serif" font-size="12" fill="#111827">1.78%</text>
<text x="210.8" y="468.0" text-anchor="middle" font-family="Arial, sans-serif" font-size="12" fill="#374151">Canterbury</text>
<rect x="402.5" y="82.0" width="100.0" height="343.0" fill="#2563eb"/>
<text x="452.5" y="75.0" text-anchor="middle" font-family="Arial, sans-serif" font-size="12" fill="#111827">2.32%</text>
<text x="452.5" y="468.0" text-anchor="middle" font-family="Arial, sans-serif" font-size="12" fill="#374151">Silesia archived</text>
<rect x="644.2" y="423.0" width="100.0" height="2.0" fill="#2563eb"/>
<text x="694.2" y="416.0" text-anchor="middle" font-family="Arial, sans-serif" font-size="12" fill="#111827">0.01%</text>
<text x="694.2" y="468.0" text-anchor="middle" font-family="Arial, sans-serif" font-size="12" fill="#374151">enwik8 archived</text>
<text transform="rotate(-90 24 253.5)" x="24.0" y="253.5" text-anchor="middle" font-family="Arial, sans-serif" font-size="13" fill="#374151">Max positive size delta (%)</text>
</svg>